<?xml version="1.0" encoding="utf-8"?>
<!-- Generator: Adobe Illustrator 24.2.1, SVG Export Plug-In . SVG Version: 6.00 Build 0)  -->
<svg version="1.1" xmlns="http://www.w3.org/2000/svg" xmlns:xlink="http://www.w3.org/1999/xlink" x="0px" y="0px"
	 viewBox="0 0 467.9 510.1" style="enable-background:new 0 0 467.9 510.1;" xml:space="preserve">
<style type="text/css">
	.st0{fill:#FFFFFF;stroke:#000000;stroke-width:5;stroke-miterlimit:10;}
	.st1{fill:#FFFFFF;stroke:#000000;stroke-width:4;stroke-miterlimit:10;}
	.st2{fill:#FFFFFF;stroke:#000000;stroke-width:3;stroke-miterlimit:10;}
	.st3{fill:#FFFFFF;stroke:#000000;stroke-width:6;stroke-miterlimit:10;}
	.st4{fill:none;stroke:#000000;stroke-width:4;stroke-miterlimit:10;}
	.st5{fill:none;stroke:#000000;stroke-width:6;stroke-miterlimit:10;}
	.st6{display:none;}
	.st7{display:inline;fill:#FFFFFF;stroke:#000000;stroke-width:6;stroke-miterlimit:10;}
</style>
<g id="cake_middle">
	<path class="st0" d="M64.3,171.7V362c0,0,155.5,56.7,347,0V171.7C411.3,171.7,257.3,208.8,64.3,171.7z"/>
</g>
<g id="frosting-middle">
	<path class="st1" d="M64.3,249.9c0,0,157.7,52.1,347,0v23.1c0,0-136.4,57.6-347,0V249.9z"/>
</g>
<g id="cake-top">
	<ellipse class="st2" cx="237.8" cy="171.7" rx="173.5" ry="24.9"/>
</g>
<g id="frosting">
	<path class="st3" d="M95.7,340.6c0,0-22.2-22.2-42.9-5.4s7.7,36,7.7,36s17.8,10.7,36.1,0c0,0,19.5,30.4,57.6,10.6
		c0,0,26.6,20.9,54.2,4.8c0,0,32.9,21.2,57.4,0.6c0,0,29.4,18.2,52.6-5.4c0,0,38.7,14.7,53.2-9.5c0,0,48.9,16,53.5-9.8
		c4.6-25.8-13.8-26.6-13.8-26.6s-16.1-10.7-41.4,7.7c0,0-29.9-18.4-48.3,8.4c0,0-33.1-20.5-49.8,10.5c0,0-34.5-26.3-59.7,0
		c0,0-21.4-26.6-51.3-8.2C160.8,354.4,140.1,326,95.7,340.6z"/>
	<path class="st3" d="M64.3,166.7c0,0,14.4-42.5,50.5-12.6c0,0,19.8-44,54.4-5.3c0,0,24.6-35.7,52.2-2c0,0,28.3-26.8,52.9,0
		c0,0,26-30.2,46,3c0,0,25.4-28.2,50.2,5.9c0,0,40.9-27.2,40.9,11.1s0,5,0,5S269.6,127.6,64.3,166.7z"/>
	<path class="st3" d="M63.6,153c0,0-44.4,24.5,3.1,43.7c0,0-0.8,3.1,16.9,0c0,0,5.9,25.2,35.2,10.7c0,0,26.7,20.4,54.4,4.5
		c0,0,32.1,17,55.9,0.9c0,0,25.4,17,65.1-1.5c0,0,41.4,9.2,53.6-6.1c0,0,39.8,13.8,55.1-8.4c0,0,55-17.8,10.7-39.1
		c0,0-25.8-6.1-20.6,14.2c0,0-39-12.3-47.5,10.9c0,0-39.9-26.4-55.2,4.4c0,0-42.9-18.8-62.8,0c0,0-26.8-23.4-55.1,0
		c0,0-15.8-29.3-50.8-6.5c0,0-6.9-21.9-31.9-10.4c-1,0.5-2,1-3.1,1.6C86.6,171.8,86.6,141.5,63.6,153z"/>
</g>
<g id="candles">
	<rect x="160.8" y="80.1" class="st1" width="18.4" height="82.7"/>
	<rect x="224.8" y="91" class="st1" width="18.4" height="82.7"/>
	<rect x="290.6" y="80.1" class="st1" width="18.4" height="82.7"/>
	<path class="st1" d="M167.8,41.2c0,0,25.4,21.4,3,33.2c0,0-19.4-2.6-6.6-16.6C164.3,57.8,169.4,57,167.8,41.2z"/>
	<path class="st1" d="M233.4,51.9c0,0,25.4,21.4,3,33.2c0,0-19.4-2.6-6.6-16.6C229.8,68.5,234.9,67.8,233.4,51.9z"/>
	<path class="st1" d="M297.7,41.2c0,0,25.4,21.4,3,33.2c0,0-19.4-2.6-6.6-16.6C294.1,57.8,299.2,57,297.7,41.2z"/>
</g>
<g id="base">
	<path class="st3" d="M30.6,394.7L53.4,466c0,0,33.4,16.3,87.4,0l20.1-71.3H30.6z"/>
	<line class="st4" x1="71.3" y1="456.2" x2="60.9" y2="423.2"/>
	<line class="st4" x1="96.2" y1="458.9" x2="96.2" y2="425.9"/>
	<line class="st4" x1="124.8" y1="455.9" x2="130.4" y2="422.9"/>
	<path class="st3" d="M329,337.4l19.5,61.1c0,0,28.6,14,74.9,0l17.2-61.1H329z"/>
	<line class="st5" x1="363.9" y1="390.1" x2="354.9" y2="361.9"/>
	<line class="st5" x1="385.2" y1="392.4" x2="385.2" y2="364.2"/>
	<line class="st4" x1="409.7" y1="389.9" x2="414.5" y2="361.6"/>
	<path class="st3" d="M285.2,375.8l21.5,67.2c0,0,31.5,15.4,82.4,0l18.9-67.2H285.2z"/>
	<line class="st4" x1="324.6" y1="433.5" x2="314.8" y2="402.4"/>
	<line class="st4" x1="347.1" y1="436.3" x2="347.1" y2="405.2"/>
	<line class="st4" x1="374" y1="433.5" x2="379.3" y2="402.4"/>
</g>
<g id="frosting-3">
	<path class="st3" d="M49.7,404.8c0,0-80-14.9-0.5-43.8h100.1c0,0,62.4,22.6-2.2,41.5C147.1,402.5,106.4,420.5,49.7,404.8z"/>
	<path class="st3" d="M345.4,346c0,0-68.6-12.8-0.5-37.5h85.8c0,0,53.5,19.4-1.9,35.6C428.9,344.1,394,359.5,345.4,346z"/>
	<path class="st3" d="M303.3,385.3c0,0-75.5-14-0.5-41.3h94.4c0,0,58.8,21.3-2,39.2C395.1,383.1,356.8,400.1,303.3,385.3z"/>
</g>
<g id="frosting-2">
	<path class="st3" d="M48.1,371.8c0,0-49.7-20.6,0.3-32.4l96.3-2.3c0,0,55.4,18-2.2,35.5C142.5,372.7,93.1,385.3,48.1,371.8z"/>
	<path class="st3" d="M344,317.8c0,0-42.5-17.7,0.2-27.7l82.5-2c0,0,47.4,15.5-1.9,30.4C424.9,318.5,382.6,329.3,344,317.8z"/>
	<path class="st3" d="M301.8,354.2c0,0-46.8-19.4,0.3-30.5l90.8-2.2c0,0,52.2,17-2,33.5C390.8,355,344.2,366.9,301.8,354.2z"/>
</g>
<g id="frosting-1">
	<path class="st3" d="M138.6,345.1c0,0,41.4-22.7-26.4-39c-1.7-0.4-3.2,1.3-2.7,3c0.6,2.3-0.7,5.4-7.2,9.2c0,0-13.5-5.3-42.5,0.6
		c0,0-29.2,11.3-2,28.5C57.8,347.5,103.4,366.8,138.6,345.1z"/>
	<path class="st3" d="M421.5,294.9c0,0,35.5-19.4-22.6-33.4c-1.5-0.4-2.7,1.1-2.3,2.6c0.5,2-0.6,4.7-6.2,7.9c0,0-11.6-4.6-36.4,0.5
		c0,0-25,9.7-1.7,24.4C352.3,297,391.4,313.5,421.5,294.9z"/>
	<path class="st3" d="M387,329c0,0,39-21.4-24.9-36.7c-1.6-0.4-3,1.2-2.6,2.9c0.6,2.2-0.7,5.1-6.8,8.7c0,0-12.7-5-40.1,0.6
		c0,0-27.5,10.6-1.9,26.9C310.9,331.3,353.9,349.5,387,329z"/>
</g>
<g id="cherry" class="st6">
	<circle class="st7" cx="104.6" cy="316" r="22.9"/>
</g>
</svg>
