<?xml version="1.0" encoding="utf-8"?>
<!-- Generator: Adobe Illustrator 24.2.1, SVG Export Plug-In . SVG Version: 6.00 Build 0)  -->
<svg version="1.1" xmlns="http://www.w3.org/2000/svg" xmlns:xlink="http://www.w3.org/1999/xlink" x="0px" y="0px"
	 viewBox="0 0 467.9 510.1" style="enable-background:new 0 0 467.9 510.1;" xml:space="preserve">
<style type="text/css">
	.st0{fill:#FFFFFF;stroke:#000000;stroke-width:5;stroke-miterlimit:10;}
	.st1{fill:#FFFFFF;stroke:#000000;stroke-width:4;stroke-miterlimit:10;}
	.st2{fill:#FFFFFF;}
	.st3{stroke:#000000;stroke-width:2;stroke-miterlimit:10;}
	.st4{fill:none;stroke:#000000;stroke-width:2;stroke-miterlimit:10;}
	.st5{fill:#FFFFFF;stroke:#000000;stroke-width:6;stroke-miterlimit:10;}
	.st6{fill:none;stroke:#000000;stroke-width:6;stroke-miterlimit:10;}
	.st7{fill:none;stroke:#000000;stroke-width:3;stroke-miterlimit:10;}
	.st8{fill:#FFFFFF;stroke:#000000;stroke-width:3;stroke-miterlimit:10;}
	.st9{fill:#FFFFFF;stroke:#000000;stroke-width:4;stroke-linejoin:round;stroke-miterlimit:10;}
	.st10{fill:#FFFFFF;stroke:#000000;stroke-width:2;stroke-miterlimit:10;}
</style>
<g id="back_legs">
	<path class="st0" d="M343.2,335.4l-7.2,46c0,0,17.4,12,37.8,0v-58.6L343.2,335.4z"/>
	<path class="st0" d="M227,318.9l45.8,12.8l4,46.5c0,0-24.4,12.8-45.4,0S227,318.9,227,318.9z"/>
</g>
<g id="body">
	<path class="st0" d="M142.8,106c0,0-5.1,9.6,0,20.9c0,0-66.4-4-45.5,33.7s75.8,0,75.8,0l-24.5,16.8c0,0-12.2,16.2,13.9,14.3
		c5.8-0.4,11.4-2.4,16.3-5.8c11.1-7.5,33.9-16.9,25,41c0,0-12.6,53.5,1,88.2l-6.8,34.8c0,0-6.8,32.1,6.2,48.9c0,0,12.4,5.5,31.1,2.4
		c8.2-1.4,10.3-9.5,7.7-18.2c-2.9-10.1-3.3-21.4-4.9-26.7l5.9-30.5c0,0,58.3,32.9,121.1,0.8l0,36.6c0,0-4.3,33.7,1.5,36.4
		c0,0,22.5,12.9,42.7-2c0,0,4.2-25.8-7.3-78.7c0,0,47-19.8,54.7-50.8c0,0,19.3-47.8-29.1-109.1c-0.3-0.4-0.6-0.8-0.8-1.2
		c-3.6-7.3-34-71.1,1.9-56.2c2.6,1.1,4.7-2.4,2.9-4.7c-7.5-9.3-32-24-38.1,2.6c0,0-5.7,48.6,18.4,90.1c1.8,3,3.2,6.3,4.1,9.7
		c3.5,12.7,9.3,42-8.8,54.4c0,0-18.3-82.4-161.2-23c0,0,15-116-35.2-134.2C210.6,96.4,152.2,69.9,142.8,106z"/>
</g>
<g id="face">
	<ellipse class="st1" cx="165.2" cy="119.4" rx="11.4" ry="17.6"/>
	<ellipse cx="161.5" cy="119.4" rx="5.7" ry="8.8"/>
	<ellipse class="st2" cx="163.7" cy="115.1" rx="1.5" ry="1.7"/>
	<ellipse transform="matrix(0.9845 -0.1753 0.1753 0.9845 -24.4429 20.8899)" cx="106" cy="148.8" rx="1.8" ry="4.8"/>
	<path class="st3" d="M163.8,92.3c4.8-2.6,12.2-3.5,17.2,10.8c0,0-4.1-9-16.6-8.1C163,95.1,162.5,93,163.8,92.3z"/>
</g>
<g id="belly">
	<path class="st1" d="M196.6,180.8c0,0,20.3-3.7,22.2,29c0,0,2.4,82.9-14,105.3c0,0-13.1-22.1,1-106.5
		C205.7,208.6,208.3,182.3,196.6,180.8z"/>
	<path class="st1" d="M243.8,322.4c-0.4,0.2-0.5,0.8-0.1,1.1c7.1,4.5,52.7,30.5,122.3-0.2c0.2-0.1,0.2-0.5-0.1-0.5
		C356.2,321.4,273.8,310,243.8,322.4z"/>
</g>
<g id="ears">
	<path class="st1" d="M191.5,116.3l17.4-46.8c0.1-0.4,0.6-0.5,0.9-0.2c2.5,3.1,2.5,24.1,21.9,14.8c0.7-0.3,1.2,1,0.6,1.6
		c-4.1,4.2-15.6,18.6,5.5,21.6c0.2,0,0.2,0.4,0,0.5c-3.2,1.3-23.3,7-5.5,19.8c0.7,0.5,0.4,1.7-0.4,1.8c-6,0.3-13.1,4-10.5,15.5
		c0.1,0.4-0.2,0.7-0.5,0.5l-27.8-15C193.1,130.2,195.9,123.7,191.5,116.3z"/>
	<line class="st4" x1="193" y1="119.4" x2="231.7" y2="84.1"/>
	<line class="st4" x1="235.1" y1="107.2" x2="193.6" y2="121.8"/>
	<line class="st4" x1="229.6" y1="128.2" x2="193.9" y2="126"/>
</g>
<g id="wings">
	<path class="st5" d="M272.4,218.4c-0.4-0.6-0.6-1.4-0.4-2.1c2.1-8.2,13.8-59.6-18.3-86.3c-29.9-24.9,54.3-69.9,79.2-82.4
		c1.9-0.9,3.8,1.3,2.8,3.3c-5.3,10.4-12.1,31,6.7,46.5c1.4,1.1,1,3.4-0.5,4.1c-9.5,4.1-32.2,15.8-22.8,32.2c0.8,1.3,0.1,3.1-1.2,3.5
		c-8.4,2.8-31,12.1-19.6,29.8c0.6,1,0.5,2.3-0.2,3.1c-3.5,3.7-12.2,14.1-9.1,23.5c0.2,0.6,0.1,1.2-0.1,1.7l-8.2,19.5
		c-0.1,0.2-0.1,0.3-0.1,0.5C280.1,217,278,226,272.4,218.4z"/>
	<line class="st6" x1="378" y1="64.2" x2="378" y2="64.2"/>
	<polyline class="st7" points="247.4,117 276.6,105.9 310.4,98.2 342.4,97.4 	"/>
	<polyline class="st7" points="319.1,133.7 288.6,134 264.8,142.5 	"/>
	<polyline class="st7" points="298.3,167 286.2,167.3 274.7,170.2 	"/>
	<path class="st5" d="M270.2,226.2c-0.2-1,0-2,0.5-2.8c6.4-8.8,44.7-64.6,18.2-115.4c-24.7-47.3,98.8-54,134.9-54.9
		c2.7-0.1,4,3.8,1.8,5.6c-11.4,9.6-29.3,30.8-13.6,60.4c1.1,2.1-0.3,4.8-2.6,4.7c-13.5-0.5-46.5,0.8-42.8,26.1
		c0.3,2-1.3,3.8-3.1,3.6c-11.5-1.4-43.4-3-37.8,25.1c0.3,1.5-0.4,3.1-1.8,3.6c-6.1,2.5-21.5,10.2-22.1,23.4c0,0.8-0.4,1.5-0.9,2.1
		l-19.1,19.1c-0.1,0.1-0.3,0.3-0.4,0.5C280.2,228.9,273.3,238.6,270.2,226.2z"/>
	<polyline class="st7" points="287.3,88.5 328,91.8 372.7,101.7 412,119 	"/>
	<polyline class="st7" points="366.7,149.8 329.4,132.8 296.5,129.5 	"/>
	<polyline class="st7" points="325.7,178.5 311,171.9 295.6,168.8 	"/>
</g>
<g id="toe-nails">
	<path class="st8" d="M199.5,387.8c-1.5,0.7-9.8,5.1-10.2,15.2c-0.1,2.3,2.4,3.6,4,2c2.5-2.5,5.9-5.4,8.7-5.1
		c1.3,0.1,2.5-0.9,2.6-2.4c0.4-5.2,0.3-14-4.7-10C199.8,387.6,199.7,387.7,199.5,387.8z"/>
	<path class="st8" d="M210.2,389.9c-1.5,0.7-9.8,5.1-10.2,15.2c-0.1,2.3,2.4,3.6,4,2c2.5-2.5,5.9-5.4,8.7-5.1
		c1.3,0.1,2.5-0.9,2.6-2.4c0.4-5.2,0.3-14-4.7-10C210.5,389.8,210.3,389.8,210.2,389.9z"/>
	<path class="st8" d="M223.1,389.9c-1.5,0.7-9.8,5.1-10.2,15.2c-0.1,2.3,2.4,3.6,4,2c2.5-2.5,5.9-5.4,8.7-5.1
		c1.3,0.1,2.5-0.9,2.6-2.4c0.4-5.2,0.3-14-4.7-10C223.4,389.8,223.3,389.8,223.1,389.9z"/>
	<path class="st8" d="M362.9,387.8c-1.5,0.7-9.8,5.1-10.2,15.2c-0.1,2.3,2.4,3.6,4,2c2.5-2.5,5.9-5.4,8.7-5.1
		c1.3,0.1,2.5-0.9,2.6-2.4c0.4-5.2,0.3-14-4.7-10C363.2,387.6,363.1,387.7,362.9,387.8z"/>
	<path class="st8" d="M374.6,389.9c-1.5,0.7-9.8,5.1-10.2,15.2c-0.1,2.3,2.4,3.6,4,2c2.5-2.5,5.9-5.4,8.7-5.1
		c1.3,0.1,2.5-0.9,2.6-2.4c0.4-5.2,0.3-14-4.7-10C374.9,389.8,374.7,389.8,374.6,389.9z"/>
	<path class="st8" d="M387.8,393.1c-1.5,0.7-9.8,5.1-10.2,15.2c-0.1,2.3,2.4,3.6,4,2c2.5-2.5,5.9-5.4,8.7-5.1
		c1.3,0.1,2.5-0.9,2.6-2.4c0.4-5.2,0.3-14-4.7-10C388.1,393,388,393.1,387.8,393.1z"/>
	<path class="st8" d="M335.2,372.1c0,0-6.7,2.8-7.9,10.1c-0.4,2.4,2.1,4.1,3.9,2.5c1.7-1.6,3.8-3.1,5.5-3.1c1.2,0,2.3-1,2.4-2.3
		C339.3,375.1,339.1,368.8,335.2,372.1z"/>
	<path class="st8" d="M344.1,376.1c0,0-6.7,2.8-7.9,10.1c-0.4,2.4,2.1,4.1,3.9,2.5c1.7-1.6,3.8-3.1,5.5-3.1c1.2,0,2.3-1,2.4-2.3
		C348.2,379.1,348,372.8,344.1,376.1z"/>
	<path class="st8" d="M353.9,376.1c0,0-6.7,2.8-7.9,10.1c-0.4,2.4,2.1,4.1,3.9,2.5c1.7-1.6,3.8-3.1,5.5-3.1c1.2,0,2.3-1,2.4-2.3
		C358,379.1,357.8,372.8,353.9,376.1z"/>
	<path class="st8" d="M245.6,383.3c0,0,4.2-9.4-1.4-8.1C238.5,376.4,245.6,383.3,245.6,383.3z"/>
</g>
<g id="fire">
	<path class="st0" d="M119.2,187.9c0,0-63.8,36.8-59.7,12.8c0,0-25.8,17.3-12,30.7c0,0,26.8,3.2-4.3,21.6c0,0-25.5,14-14.3-6.1
		c0,0-29.5,12.9-5.5,29c2.1,1.4-7,27.2-4,28.7c0,0,12-17.1,14.6-10c0.2,0.4,0.3,0.8,0.5,1.3c4.2,10.3,13.5,19.3,34.2,3.9
		c0,0-17.8-3.1-5.3-13.4c0.9-0.8,1.8-1.6,2.6-2.6c3.7-4.8,16.5-19.4,25.8-9.5c2.7,2.9,6.4,4.9,10.4,5.1c5.8,0.4,13.1-2.3,16.4-16.4
		c0,0-21.4,8.2-13.3-8.9s19.9-10.5,19.9-10.5s18.4,7.7,21.4,3.1c0,0,4.6-8.2,1-16.9c0,0-14,10-14.6-18.9c0,0-15.3,11.2,0-23H119.2z"
		/>
	<path class="st9" d="M118.6,188.7c-3.4,4.7-14.9,22.8-35.4,27c-2.7,0.5-22.1,6.3-21.4,8.1c2,5.3,5.6,11.5,8.6,13.9
		c8.7,7-31.7,32.7-39.3,30.2c-2.6-0.9,1.7,10.5,1.4,12.6c-0.2,1,6.5,5.2,9.5,7.6c2.1,1.7,5.1,1,6.3-1.4c2.2-4.3,4.5-15.9,17.4-19.3
		c1.1-0.3,27.4-6.7,26.7-8.7c-3.6-10.8,7.3-25.6,7.3-25.7c2-2.6,25.5,1.5,26,0c1.7-4.8-0.1-5,0-9.4c0-1-10.4-9.8-10.3-10
		c0.4-2.1,3.1-14.5,11.8-22C128.8,190.3,119,188.2,118.6,188.7z"/>
	<path class="st10" d="M31.1,271.4"/>
</g>
</svg>
