<?xml version="1.0" encoding="utf-8"?>
<!-- Generator: Adobe Illustrator 24.2.1, SVG Export Plug-In . SVG Version: 6.00 Build 0)  -->
<svg version="1.1" xmlns="http://www.w3.org/2000/svg" xmlns:xlink="http://www.w3.org/1999/xlink" x="0px" y="0px"
	 viewBox="0 0 467.9 510.1" style="enable-background:new 0 0 467.9 510.1;" xml:space="preserve">
<style type="text/css">
	.st0{fill:#FFFFFF;stroke:#000000;stroke-width:4;stroke-miterlimit:10;}
	.st1{fill:#FFFFFF;stroke:#000000;stroke-width:8;stroke-miterlimit:10;}
	.st2{display:none;}
	.st3{display:inline;fill:#FFFFFF;stroke:#000000;stroke-width:6;stroke-miterlimit:10;}
	.st4{display:inline;fill:#FFFFFF;stroke:#000000;stroke-width:7;stroke-miterlimit:10;}
	.st5{display:inline;fill:#FFFFFF;stroke:#000000;stroke-width:8;stroke-miterlimit:10;}
	.st6{fill:#FFFFFF;stroke:#000000;stroke-width:6;stroke-miterlimit:10;}
	.st7{fill:#FFFFFF;stroke:#000000;stroke-width:9;stroke-miterlimit:10;}
	.st8{fill:#FFFFFF;stroke:#000000;stroke-width:5;stroke-miterlimit:10;}
</style>
<g id="stems">
	<path class="st0" d="M112.3,292.3c0,0,54,33.1,73,93l-13.3-0.6C172,384.8,153.1,322.6,112.3,292.3z"/>
	<path class="st0" d="M200,192.8c0,0-23.3,123.8-7,191.2l16.3,1.4C209.3,385.3,190.2,296.2,200,192.8z"/>
	<path class="st0" d="M278.1,265.3c0,0-53.2,29.4-55.9,121l14.1,0.1C236.4,386.4,229.4,332.1,278.1,265.3z"/>
	<path class="st0" d="M355.5,308.2c0,0-74.4,0.8-106.4,77.1l14.9,1.1C264,386.4,276.4,327.5,355.5,308.2z"/>
</g>
<g id="pot">
	<path class="st1" d="M121.9,384.2c0,0,115.4,10.5,198.6-0.2c0,0-1,23.7-4.5,32.2l-15,67.4c0,0-71.8,31.4-157.7,0l-14.6-68.1
		C128.8,415.5,123.4,401.1,121.9,384.2z"/>
	<path class="st1" d="M121.9,381.8c0,0,132.3,10.6,198.6,0c0,0,2.9,19.1-2.9,36.1c0,0-90.6,17.4-191-2
		C126.6,415.8,118.9,396.1,121.9,381.8z"/>
</g>
<g id="tulip-2-1" class="st2">
	<path class="st3" d="M344.1,78.6c0,0-105.8,52.6-12.4,131C331.7,209.6,462.1,170.3,344.1,78.6z"/>
</g>
<g id="tulip-2-2" class="st2">
	<path class="st4" d="M392.4,72.7c0,0-73.8,26.7-60.7,136.9C331.7,209.6,465.7,228.1,392.4,72.7z"/>
</g>
<g id="tulip-2-3" class="st2">
	<path class="st4" d="M331.7,209.6c0,0,53.3-68.6-29.6-145.4C302.1,64.2,220.3,208.4,331.7,209.6z"/>
</g>
<g id="tulip-1-1" class="st2">
	<path class="st3" d="M73.3,63c0,0-94.7,70.2,10.8,130.8C84.1,193.8,205.2,132.3,73.3,63z"/>
</g>
<g id="tulip-1-2" class="st2">
	<path class="st5" d="M121.7,48.6c0,0-67.8,39.1-35.6,145C86.1,193.6,220.9,188.2,121.7,48.6z"/>
</g>
<g id="tulip-1-3" class="st2">
	<path class="st5" d="M84.4,193.5c0,0,40.3-76.7-54.6-137.5C29.9,56-25.1,211.8,84.4,193.5z"/>
</g>
<g id="petals-1">
	<path class="st6" d="M190.1,140.7c0,0-56.5-51.4-28.7-110c0,0,44.1,12.5,38,105.4L190.1,140.7z"/>
	<path class="st6" d="M217,140.4c0,0-0.6-76.4,61.3-95.7c0,0,20.7,40.9-51.7,99.5L217,140.4z"/>
	<path class="st6" d="M231.6,150.6c0,0,54.9-53,111.6-21.5c0,0-15.3,43.2-107.7,31.1L231.6,150.6z"/>
	<path class="st6" d="M234.5,171.3c0,0,75.7,10.3,85.9,74.4c0,0-43.4,14.7-91-65.4L234.5,171.3z"/>
	<path class="st6" d="M216.7,193c0,0,35.2,67.8-11.2,113.1c0,0-37-27,0.9-112.1L216.7,193z"/>
	<path class="st6" d="M185.3,190.7c0,0-24.5,72.3-89.4,70.2c0,0-6.2-45.4,81.5-77L185.3,190.7z"/>
	<path class="st6" d="M172.2,161.4c0,0-73,17.8-107.4-36.6c0,0,33.9-28.9,108.6,26.6L172.2,161.4z"/>
</g>
<g id="petals-2">
	<path class="st1" d="M201.7,136c0,0-25.5-72,26.7-110.5c0,0,32.9,31.9-16.4,110.9L201.7,136z"/>
	<path class="st1" d="M222.2,141.2c0,0,29.2-70.6,93.7-64.3c0,0,3.2,45.7-86.3,71.5L222.2,141.2z"/>
	<path class="st1" d="M236.7,166c0,0,71.8-25.9,110.6,26.2c0,0-31.7,33.1-111-15.8L236.7,166z"/>
	<path class="st1" d="M227.6,187.2c0,0,65,40,48.6,102.8c0,0-45.7-4.1-56.9-96.6L227.6,187.2z"/>
	<path class="st1" d="M200.4,195.9c0,0,7.2,76-52.8,100.6c0,0-24.2-39,42.9-103.5L200.4,195.9z"/>
	<path class="st1" d="M175.6,179.7c0,0-59.9,47.3-113.2,10.3c0,0,19.6-41.5,110.2-20.2L175.6,179.7z"/>
	<path class="st1" d="M179.5,149.6c0,0-75.2-12.9-83.3-77.3c0,0,43.9-13.2,88.7,68.5L179.5,149.6z"/>
</g>
<g id="petals-3">
	<circle class="st7" cx="203.7" cy="165.1" r="27.9"/>
</g>
<g id="tiny-1">
	<path class="st6" d="M357.5,294.3c0,0-29.7-14.8-3.4-29.8c0,0,25.9-9.7,14.2,26.8C368.3,291.4,361.1,290.5,357.5,294.3z"/>
	<path class="st6" d="M377.3,294.8c0,0,9.5-31.7,28.8-8.5c0,0,14,23.8-24,18.6C382.1,304.9,381.7,297.8,377.3,294.8z"/>
	<path class="st6" d="M381.3,305.5c0,0,28.1-17.5,27.2,12.8c0,0-5.3,27.1-30.3-2C378.1,316.3,382.6,310.6,381.3,305.5z"/>
	<path class="st8" d="M366.7,319.4c0,0,7.4,32.3-20.9,21.6c0,0-24-13.8,11.7-28C357.5,313,361.4,319,366.7,319.4z"/>
	<path class="st6" d="M355.5,314c0,0-15.1,29.5-29.9,3c0,0-9.4-26,27-13.9C352.6,303.2,351.7,310.3,355.5,314z"/>
	<path class="st8" d="M352.9,305c0,0-30,14-25.5-15.9c0,0,8.5-26.3,29.8,5.6C357.3,294.6,352.2,299.7,352.9,305z"/>
	<path class="st8" d="M365.7,289.9c0,0-14.8-29.6,15.2-25.9c0,0,26.5,7.8-4.8,30C376.1,294,370.9,289,365.7,289.9z"/>
	<path class="st8" d="M378,316.1c0,0,29.6,14.9,3.2,29.8c0,0-25.9,9.6-14.1-26.9C367.2,319.1,374.4,319.9,378,316.1z"/>
	<path class="st6" d="M278.1,239.6c0,0-40.9-20.4-4.7-41.2c0,0,35.7-13.4,19.6,37C293,235.5,283.2,234.4,278.1,239.6z"/>
	<path class="st6" d="M305.5,240.3c0,0,13-43.8,39.7-11.7c0,0,19.4,32.9-33.1,25.7C312.1,254.3,311.5,244.3,305.5,240.3z"/>
	<path class="st6" d="M311,255.1c0,0,38.8-24.1,37.5,17.6c0,0-7.3,37.5-41.8-2.8C306.6,269.9,312.8,262.1,311,255.1z"/>
	<path class="st8" d="M290.8,274.2c0,0,10.2,44.6-28.8,29.8c0,0-33.1-19.1,16.2-38.6C278.1,265.3,283.5,273.7,290.8,274.2z"/>
	<path class="st6" d="M275.4,266.8c0,0-20.8,40.7-41.2,4.2c0,0-13-35.9,37.3-19.2C271.4,251.8,270.2,261.7,275.4,266.8z"/>
	<path class="st8" d="M271.8,254.3c0,0-41.4,19.4-35.1-21.9c0,0,11.7-36.3,41.2,7.7C277.8,240,270.8,247,271.8,254.3z"/>
	<path class="st8" d="M289.4,233.5c0,0-20.4-40.9,21-35.7c0,0,36.6,10.8-6.6,41.4C303.8,239.2,296.6,232.3,289.4,233.5z"/>
	<path class="st8" d="M306.5,269.7c0,0,40.8,20.6,4.5,41.2c0,0-35.8,13.2-19.4-37.1C291.6,273.8,301.4,275,306.5,269.7z"/>
	<path class="st6" d="M86.6,268.5c0,0-36.9-18.4-4.2-37.1c0,0,32.2-12.1,17.7,33.4C100,264.8,91.1,263.8,86.6,268.5z"/>
	<path class="st6" d="M111.3,269.1c0,0,11.8-39.5,35.8-10.5c0,0,17.5,29.7-29.9,23.1C117.2,281.7,116.7,272.8,111.3,269.1z"/>
	<path class="st6" d="M116.2,282.4c0,0,35-21.7,33.8,15.9c0,0-6.6,33.8-37.7-2.5C112.3,295.8,117.8,288.8,116.2,282.4z"/>
	<path class="st8" d="M98,299.7c0,0,9.2,40.2-26,26.8c0,0-29.8-17.2,14.6-34.8C86.6,291.7,91.4,299.2,98,299.7z"/>
	<path class="st6" d="M84.1,293c0,0-18.8,36.7-37.2,3.8c0,0-11.7-32.4,33.6-17.3C80.5,279.5,79.4,288.4,84.1,293z"/>
	<path class="st8" d="M80.9,281.7c0,0-37.3,17.5-31.7-19.8c0,0,10.6-32.8,37.1,6.9C86.3,268.9,80,275.2,80.9,281.7z"/>
	<path class="st8" d="M96.7,263c0,0-18.4-36.9,19-32.2c0,0,33,9.7-6,37.3C109.7,268.1,103.2,261.9,96.7,263z"/>
	<path class="st8" d="M112.1,295.7c0,0,36.8,18.6,4,37.1c0,0-32.3,11.9-17.5-33.5C98.7,299.3,107.6,300.4,112.1,295.7z"/>
</g>
<g id="tiny-2">
	<circle class="st1" cx="367.5" cy="305.3" r="13"/>
	<circle class="st1" cx="292" cy="254.7" r="17.9"/>
	<circle class="st1" cx="99.1" cy="282.1" r="16.1"/>
</g>
</svg>
