<?xml version="1.0" encoding="utf-8"?>
<!-- Generator: Adobe Illustrator 24.2.1, SVG Export Plug-In . SVG Version: 6.00 Build 0)  -->
<svg version="1.1" xmlns="http://www.w3.org/2000/svg" xmlns:xlink="http://www.w3.org/1999/xlink" x="0px" y="0px"
	 viewBox="0 0 467.9 510.1" style="enable-background:new 0 0 467.9 510.1;" xml:space="preserve">
<style type="text/css">
	.st0{fill:#FFFFFF;stroke:#000000;stroke-width:7;stroke-miterlimit:10;}
	.st1{fill:#FFFFFF;stroke:#000000;stroke-width:5;stroke-miterlimit:10;}
	.st2{fill:none;stroke:#000000;stroke-width:6;stroke-miterlimit:10;}
	.st3{fill:#FFFFFF;stroke:#000000;stroke-width:6;stroke-miterlimit:10;}
	.st4{stroke:#000000;stroke-width:6;stroke-miterlimit:10;}
	.st5{fill:#FFFFFF;}
</style>
<g id="right-ear">
	<path class="st0" d="M195.5,119.7c0,0-25.9-55.6-61.7-20.2s-39.1,65-37.4,73.9c0,0,8.9,43.2,40.5,4.8s22.9-63.7,22.9-63.7l21,21.5
		L195.5,119.7z"/>
</g>
<g id="left-ear">
	<path class="st0" d="M340.1,119.7c0,0,25.9-55.6,61.7-20.2s39.1,65,37.4,73.9c0,0-8.9,43.2-40.5,4.8s-22.9-63.7-22.9-63.7l-21,21.5
		L340.1,119.7z"/>
</g>
<g id="body">
	<path class="st0" d="M190.8,275.8c0,0-116.7,51.8-76.1,86.2c55.8,47.3,183.2-4.7,183.2-4.7s40.8-21.5,33.6-69.8
		C331.5,287.5,261.4,342.4,190.8,275.8z"/>
</g>
<g id="tail">
	<path class="st0" d="M104.2,344.8c0,0-84.4,14.6-82.7-79.4c0,0,3.1-43.2,35.1-44.9c0,0-38.1,37.1,1.7,80c0,0,20.9,22.8,47.9,34.4
		L104.2,344.8z"/>
</g>
<g id="font-right-leg">
	<path class="st0" d="M278.1,364.4l4.1,50.4c0,0,14.6-4.8,18.4,1.7c0,0,16,20.4-37.8,10.9l-2-57.8L278.1,364.4z"/>
</g>
<g id="front-left-leg">
	<path class="st0" d="M320.9,339l-1,56.1c21.7-6.5,18.5,11.6,18.5,11.6c-18.7,9.9-37,1.7-37,1.7V357C301.4,357,313,352.7,320.9,339z
		"/>
</g>
<g id="back-right-leg">
	<path class="st0" d="M112.8,361.1c0,0,8.9,12.8,12.6,34.3c3.7,21.4,0,36.6,0,36.6s19.4,8.3,31.3,0c11.9-8.3-15-12.7-15-12.7
		s12.9-30.3,15.3-47.3C157.1,371.9,160.8,321.1,112.8,361.1z"/>
</g>
<g id="back-left-leg">
	<path class="st0" d="M165.9,381.9v38c0,0,18.7,6.1,25.2,1.7c0,0,14.6-12.9-9.5-14l2-24.2L165.9,381.9z"/>
</g>
<g id="face">
	<circle class="st1" cx="267.9" cy="200" r="108.1"/>
</g>
<g id="lower-mouth">
	<path class="st2" d="M237.6,285.6c0,0,23.3,27,52.6,1.5c0,0-18.9-10.7-23.7-19.2C266.6,267.9,260.4,273,237.6,285.6z"/>
</g>
<g id="top-mouth">
	<path class="st2" d="M267.7,198.5c0,0-60.3-3.7-58.6,58.9c1.7,62.6,56.9,8.9,56.9,8.9s59.8,61.3,52-7.1
		C310.3,190.7,267.7,198.5,267.7,198.5z"/>
</g>
<g id="nose">
	<path class="st2" d="M266.9,239.9c0,0-11.1-5.1-14.6-20.8s14.6-2.7,14.6-2.7s19.3-17.7,17,2S266.9,239.9,266.9,239.9z"/>
</g>
<g id="eyes">
	<circle class="st3" cx="304.9" cy="177.3" r="26"/>
	<circle class="st3" cx="231.4" cy="175.5" r="26"/>
	<circle class="st4" cx="233.9" cy="175.5" r="16.3"/>
	<circle class="st4" cx="307" cy="177.3" r="16.3"/>
	<circle class="st5" cx="241" cy="165.9" r="3.4"/>
	<circle class="st5" cx="228.1" cy="180.9" r="5.4"/>
	<circle class="st5" cx="301.4" cy="182.8" r="5.4"/>
	<circle class="st5" cx="313.5" cy="167.8" r="3.4"/>
</g>
</svg>
